<svg version="1.2" xmlns="http://www.w3.org/2000/svg" viewBox="0 0 774 774" width="1024" height="1024">
	<style>
		.s0 { fill: #1e1f2b } 
		.s1 { fill: #2c2c2c } 
	</style>
	<path id="Color Fill 2" class="s0" d="m255.14 57.28l-0.14 56.32c9.19 0.89 16.91 1.48 23.09 1.89 6.18 0.42 21.07 2.15 33.09 3.86 12.01 1.71 28.58 4.53 36.82 6.27 8.24 1.73 22.01 5.43 30.59 8.21 8.58 2.78 22.07 7.81 29.96 11.18 7.9 3.37 20.54 9.56 28.09 13.76 7.55 4.21 17.37 10.22 21.82 13.38 4.44 3.16 13.37 10.8 19.83 16.97 6.47 6.18 15.27 15.73 19.56 21.23 4.29 5.49 10.78 14.76 14.4 20.6 3.63 5.83 8.96 15.66 11.85 21.84 2.89 6.18 6.96 16.58 9.05 23.1 2.09 6.52 4.95 17.48 6.36 24.34 1.41 6.87 3.56 20.07 4.78 29.34 2.06 15.66 2.19 31.98 1.9 230.65l-0.31 213.79h128.58c-0.68-426.58-0.89-446.46-2.91-461.92-1.21-9.27-3.83-25-5.82-34.95-2-9.96-5.09-23.16-6.88-29.34-1.79-6.18-5.82-17.7-8.96-25.59-3.14-7.9-8.52-19.98-11.96-26.84-3.43-6.87-9.31-17.54-13.05-23.72-3.74-6.18-10.83-16.56-15.75-23.06-4.92-6.5-14-17.12-20.18-23.6-6.18-6.48-17.14-16.89-24.35-23.15-7.21-6.25-18.44-15.09-24.96-19.63-6.53-4.54-15.8-10.66-20.6-13.59-4.81-2.92-13.8-7.85-19.98-10.95-6.18-3.09-17.41-8.27-24.97-11.5-7.55-3.23-20.19-8.2-28.09-11.04-7.89-2.84-21.66-7.37-30.58-10.05-8.93-2.69-26.06-6.9-38.08-9.35-12.01-2.45-29.71-5.58-39.32-6.95-9.62-1.38-25.91-3.32-36.21-4.32-10.3-1.01-24.98-2.2-32.62-2.66l-13.9-0.83z"/>
	<path id="Color Fill 1" class="s1" d="m99.57 0.82c-0.57 0.46-0.95 174.61-0.83 387.01l0.2 386.18h129.84v-257.18h197.25v-122.34h-197.25c0-148.52-0.42-237.28-0.94-293.07l-0.93-101.43c-97.88 0-126.77 0.37-127.34 0.83z"/>
</svg>